ffmpeg version 8.1-full_build-www.gyan.dev Copyright (c) 2000-2026 the FFmpeg developers
  built with gcc 15.2.0 (Rev11, Built by MSYS2 project)
  configuration: --enable-gpl --enable-version3 --enable-static --disable-w32threads --disable-autodetect --enable-cairo --enable-fontconfig --enable-iconv --enable-gnutls --enable-lcms2 --enable-libxml2 --enable-gmp --enable-bzlib --enable-lzma --enable-libsnappy --enable-zlib --enable-librist --enable-libsrt --enable-libssh --enable-libzmq --enable-avisynth --enable-libbluray --enable-libcaca --enable-libdvdnav --enable-libdvdread --enable-sdl2 --enable-libaribb24 --enable-libaribcaption --enable-libdav1d --enable-libdavs2 --enable-libopenjpeg --enable-libquirc --enable-libuavs3d --enable-libxevd --enable-libzvbi --enable-liboapv --enable-libqrencode --enable-librav1e --enable-libsvtav1 --enable-libvvenc --enable-libwebp --enable-libx264 --enable-libx265 --enable-libxavs2 --enable-libxeve --enable-libxvid --enable-libaom --enable-libjxl --enable-libsvtjpegxs --enable-libvpx --enable-mediafoundation --enable-libass --enable-frei0r --enable-libfreetype --enable-libfribidi --enable-libharfbuzz --enable-liblensfun --enable-libvidstab --enable-libvmaf --enable-libzimg --enable-amf --enable-cuda-llvm --enable-cuvid --enable-dxva2 --enable-d3d11va --enable-d3d12va --enable-ffnvcodec --enable-libvpl --enable-nvdec --enable-nvenc --enable-vaapi --enable-libshaderc --enable-vulkan --enable-libplacebo --enable-opencl --enable-libcdio --enable-openal --enable-libgme --enable-libmodplug --enable-libopenmpt --enable-libopencore-amrwb --enable-libmp3lame --enable-libshine --enable-libtheora --enable-libtwolame --enable-libvo-amrwbenc --enable-libcodec2 --enable-libilbc --enable-libgsm --enable-liblc3 --enable-libopencore-amrnb --enable-libopus --enable-libspeex --enable-libvorbis --enable-ladspa --enable-libbs2b --enable-libflite --enable-libmysofa --enable-librubberband --enable-libsoxr --enable-chromaprint --enable-whisper
  libavutil      60. 26.100 / 60. 26.100
  libavcodec     62. 28.100 / 62. 28.100
  libavformat    62. 12.100 / 62. 12.100
  libavdevice    62.  3.100 / 62.  3.100
  libavfilter    11. 14.100 / 11. 14.100
  libswscale      9.  5.100 /  9.  5.100
  libswresample   6.  3.100 /  6.  3.100
-filter_complex_script is deprecated, use -/filter_complex C:\t\x4ytla_e1\filter_complex.txt instead
[in#0/mp3 @ 00000190d4f4f7c0] Estimating duration from bitrate, this may be inaccurate
Input #0, mp3, from 'C:\t\x4ytla_e1\seg_001.mp3':
  Duration: 00:00:03.91, start: 0.000000, bitrate: 48 kb/s
  Stream #0:0: Audio: mp3 (mp3float), 24000 Hz, mono, fltp, 48 kb/s
[in#1/mp3 @ 00000190d4f571c0] Estimating duration from bitrate, this may be inaccurate
Input #1, mp3, from 'C:\t\x4ytla_e1\seg_002.mp3':
  Duration: 00:00:03.89, start: 0.000000, bitrate: 48 kb/s
  Stream #1:0: Audio: mp3 (mp3float), 24000 Hz, mono, fltp, 48 kb/s
[in#2/mp3 @ 00000190d4f87040] Estimating duration from bitrate, this may be inaccurate
Input #2, mp3, from 'C:\t\x4ytla_e1\seg_003.mp3':
  Duration: 00:00:04.63, start: 0.000000, bitrate: 48 kb/s
  Stream #2:0: Audio: mp3 (mp3float), 24000 Hz, mono, fltp, 48 kb/s
[in#3/mp3 @ 00000190d4fa7e40] Estimating duration from bitrate, this may be inaccurate
Input #3, mp3, from 'C:\t\x4ytla_e1\seg_004.mp3':
  Duration: 00:00:04.03, start: 0.000000, bitrate: 48 kb/s
  Stream #3:0: Audio: mp3 (mp3float), 24000 Hz, mono, fltp, 48 kb/s
[in#4/mp3 @ 00000190d4fc8d40] Estimating duration from bitrate, this may be inaccurate
Input #4, mp3, from 'C:\t\x4ytla_e1\seg_005.mp3':
  Duration: 00:00:05.42, start: 0.000000, bitrate: 48 kb/s
  Stream #4:0: Audio: mp3 (mp3float), 24000 Hz, mono, fltp, 48 kb/s
Stream mapping:
  Stream #0:0 (mp3float) -> adelay:default
  Stream #1:0 (mp3float) -> adelay:default
  Stream #2:0 (mp3float) -> adelay:default
  Stream #3:0 (mp3float) -> adelay:default
  Stream #4:0 (mp3float) -> adelay:default
  apad:default -> Stream #0:0 (libmp3lame)
Press [q] to stop, [?] for help
Output #0, mp3, to 'G:\workspace\yinghe-shijie\videos\exports\短视频\手机电车都在用，锂电池凭啥能充这么多次？\隔膜为何能防止电池起火_短视频\隔膜为何能防止电池起火_短视频_中文解说.mp3':
  Metadata:
    TSSE            : Lavf62.12.100
  Stream #0:0: Audio: mp3, 44100 Hz, stereo, fltp, 192 kb/s
    Metadata:
      encoder         : Lavc62.28.100 libmp3lame
[out#0/mp3 @ 00000190d4f54580] video:0KiB audio:627KiB subtitle:0KiB other streams:0KiB global headers:0KiB muxing overhead: 0.104520%
size=     628KiB time=00:00:26.70 bitrate= 192.6kbits/s speed= 162x elapsed=0:00:00.16    
ffmpeg version 8.1-full_build-www.gyan.dev Copyright (c) 2000-2026 the FFmpeg developers
  built with gcc 15.2.0 (Rev11, Built by MSYS2 project)
  configuration: --enable-gpl --enable-version3 --enable-static --disable-w32threads --disable-autodetect --enable-cairo --enable-fontconfig --enable-iconv --enable-gnutls --enable-lcms2 --enable-libxml2 --enable-gmp --enable-bzlib --enable-lzma --enable-libsnappy --enable-zlib --enable-librist --enable-libsrt --enable-libssh --enable-libzmq --enable-avisynth --enable-libbluray --enable-libcaca --enable-libdvdnav --enable-libdvdread --enable-sdl2 --enable-libaribb24 --enable-libaribcaption --enable-libdav1d --enable-libdavs2 --enable-libopenjpeg --enable-libquirc --enable-libuavs3d --enable-libxevd --enable-libzvbi --enable-liboapv --enable-libqrencode --enable-librav1e --enable-libsvtav1 --enable-libvvenc --enable-libwebp --enable-libx264 --enable-libx265 --enable-libxavs2 --enable-libxeve --enable-libxvid --enable-libaom --enable-libjxl --enable-libsvtjpegxs --enable-libvpx --enable-mediafoundation --enable-libass --enable-frei0r --enable-libfreetype --enable-libfribidi --enable-libharfbuzz --enable-liblensfun --enable-libvidstab --enable-libvmaf --enable-libzimg --enable-amf --enable-cuda-llvm --enable-cuvid --enable-dxva2 --enable-d3d11va --enable-d3d12va --enable-ffnvcodec --enable-libvpl --enable-nvdec --enable-nvenc --enable-vaapi --enable-libshaderc --enable-vulkan --enable-libplacebo --enable-opencl --enable-libcdio --enable-openal --enable-libgme --enable-libmodplug --enable-libopenmpt --enable-libopencore-amrwb --enable-libmp3lame --enable-libshine --enable-libtheora --enable-libtwolame --enable-libvo-amrwbenc --enable-libcodec2 --enable-libilbc --enable-libgsm --enable-liblc3 --enable-libopencore-amrnb --enable-libopus --enable-libspeex --enable-libvorbis --enable-ladspa --enable-libbs2b --enable-libflite --enable-libmysofa --enable-librubberband --enable-libsoxr --enable-chromaprint --enable-whisper
  libavutil      60. 26.100 / 60. 26.100
  libavcodec     62. 28.100 / 62. 28.100
  libavformat    62. 12.100 / 62. 12.100
  libavdevice    62.  3.100 / 62.  3.100
  libavfilter    11. 14.100 / 11. 14.100
  libswscale      9.  5.100 /  9.  5.100
  libswresample   6.  3.100 /  6.  3.100
Input #0, mov,mp4,m4a,3gp,3g2,mj2, from 'G:\workspace\yinghe-shijie\videos\raw\手机电车都在用，锂电池凭啥能充这么多次？.mp4':
  Metadata:
    major_brand     : isom
    minor_version   : 512
    compatible_brands: isomiso2avc1mp41
    encoder         : Lavf58.76.100
  Duration: 00:09:29.96, start: 0.000000, bitrate: 1971 kb/s
  Stream #0:0[0x1](und): Video: h264 (High) (avc1 / 0x31637661), yuv420p(tv, bt709, progressive), 1920x1080 [SAR 1:1 DAR 16:9], 1837 kb/s, 24 fps, 24 tbr, 12288 tbn (default)
    Metadata:
      handler_name    : ISO Media file produced by Google Inc.
  Stream #0:1[0x2](eng): Audio: aac (LC) (mp4a / 0x6134706D), 44100 Hz, stereo, fltp, 127 kb/s (default)
    Metadata:
      handler_name    : ISO Media file produced by Google Inc.
Input #1, mp3, from 'G:\workspace\yinghe-shijie\videos\exports\短视频\手机电车都在用，锂电池凭啥能充这么多次？\隔膜为何能防止电池起火_短视频\隔膜为何能防止电池起火_短视频_中文解说.mp3':
  Metadata:
    encoder         : Lavf62.12.100
  Duration: 00:00:26.70, start: 0.025057, bitrate: 192 kb/s
  Stream #1:0: Audio: mp3 (mp3float), 44100 Hz, stereo, fltp, 192 kb/s, start 0.025057
    Metadata:
      encoder         : Lavc62.28
Input #2, mp3, from 'G:\workspace\yinghe-shijie\music\硬核视界_通用BGM_舒缓科普探索_CC0.mp3':
  Metadata:
    artist          : Cleyton Kauffman
    title           : Exploration Theme
    encoder         : Lavf62.12.100
  Duration: 00:02:14.40, start: 0.025057, bitrate: 192 kb/s
  Stream #2:0: Audio: mp3 (mp3float), 44100 Hz, stereo, fltp, 192 kb/s, start 0.025057
    Metadata:
      encoder         : Lavc62.28
Stream mapping:
  Stream #0:0 (h264) -> trim:default
  Stream #1:0 (mp3float) -> atrim:default
  Stream #2:0 (mp3float) -> atrim:default
  concat:out:v0 -> Stream #0:0 (libx264)
  amix:default -> Stream #0:1 (aac)
Press [q] to stop, [?] for help
[libx264 @ 0000027858886500] using SAR=1/1
[libx264 @ 0000027858886500] using cpu capabilities: MMX2 SSE2Fast SSSE3 SSE4.2 AVX FMA3 BMI2 AVX2
[libx264 @ 0000027858886500] profile High, level 4.0, 4:2:0, 8-bit
[libx264 @ 0000027858886500] 264 - core 165 r3223 0480cb0 - H.264/MPEG-4 AVC codec - Copyleft 2003-2025 - http://www.videolan.org/x264.html - options: cabac=1 ref=3 deblock=1:0:0 analyse=0x3:0x113 me=hex subme=7 psy=1 psy_rd=1.00:0.00 mixed_ref=1 me_range=16 chroma_me=1 trellis=1 8x8dct=1 cqm=0 deadzone=21,11 fast_pskip=1 chroma_qp_offset=-2 threads=34 lookahead_threads=5 sliced_threads=0 nr=0 decimate=1 interlaced=0 bluray_compat=0 constrained_intra=0 bframes=3 b_pyramid=2 b_adapt=1 b_bias=0 direct=1 weightb=1 open_gop=0 weightp=2 keyint=250 keyint_min=25 scenecut=40 intra_refresh=0 rc_lookahead=40 rc=crf mbtree=1 crf=19.0 qcomp=0.60 qpmin=0 qpmax=69 qpstep=4 ip_ratio=1.40 aq=1:1.00
Output #0, mp4, to 'G:\workspace\yinghe-shijie\videos\exports\短视频\手机电车都在用，锂电池凭啥能充这么多次？\隔膜为何能防止电池起火_短视频\隔膜为何能防止电池起火_短视频.851808.partial.mp4':
  Metadata:
    major_brand     : isom
    minor_version   : 512
    compatible_brands: isomiso2avc1mp41
    encoder         : Lavf62.12.100
  Stream #0:0: Video: h264 (avc1 / 0x31637661), yuv420p(tv, bt709, progressive), 1920x1080 [SAR 1:1 DAR 16:9], q=2-31, 30 fps, 15360 tbn
    Metadata:
      encoder         : Lavc62.28.100 libx264
    Side data:
      CPB properties: bitrate max/min/avg: 0/0/0 buffer size: 0 vbv_delay: N/A
  Stream #0:1: Audio: aac (LC) (mp4a / 0x6134706D), 44100 Hz, stereo, fltp, 192 kb/s
    Metadata:
      encoder         : Lavc62.28.100 aac
frame=    0 fps=0.0 q=0.0 size=       0KiB time=N/A bitrate=N/A speed=N/A elapsed=0:00:06.29    frame=    0 fps=0.0 q=0.0 size=       0KiB time=N/A bitrate=N/A speed=N/A elapsed=0:00:06.83    frame=    1 fps=0.1 q=25.0 size=     256KiB time=-00:00:00.03 bitrate=N/A speed=N/A elapsed=0:00:07.36    frame=   54 fps=6.8 q=25.0 size=    1536KiB time=00:00:01.73 bitrate=7259.6kbits/s speed=0.218x elapsed=0:00:07.95    frame=   85 fps=9.9 q=25.0 size=    2048KiB time=00:00:02.60 bitrate=6452.9kbits/s speed=0.303x elapsed=0:00:08.57    frame=  121 fps= 13 q=25.0 size=    2816KiB time=00:00:02.96 bitrate=7776.1kbits/s speed=0.321x elapsed=0:00:09.25    frame=  163 fps= 16 q=25.0 size=    3840KiB time=00:00:04.70 bitrate=6693.1kbits/s speed=0.46x elapsed=0:00:10.22    frame=  205 fps= 19 q=25.0 size=    4352KiB time=00:00:06.43 bitrate=5541.8kbits/s speed=0.586x elapsed=0:00:10.97    frame=  239 fps= 20 q=25.0 size=    5120KiB time=00:00:07.56 bitrate=5543.2kbits/s speed=0.647x elapsed=0:00:11.69    frame=  272 fps= 22 q=25.0 size=    5888KiB time=00:00:08.50 bitrate=5674.7kbits/s speed=0.691x elapsed=0:00:12.30    frame=  306 fps= 23 q=25.0 size=    6144KiB time=00:00:10.00 bitrate=5033.2kbits/s speed=0.766x elapsed=0:00:13.05    frame=  348 fps= 25 q=25.0 size=    6656KiB time=00:00:11.46 bitrate=4755.2kbits/s speed=0.824x elapsed=0:00:13.91    frame=  359 fps= 25 q=25.0 size=    6912KiB time=00:00:11.53 bitrate=4909.6kbits/s speed=0.793x elapsed=0:00:14.54    frame=  359 fps= 23 q=25.0 size=    6912KiB time=00:00:11.90 bitrate=4758.3kbits/s speed=0.769x elapsed=0:00:15.46    frame=  394 fps= 24 q=25.0 size=    7424KiB time=00:00:12.43 bitrate=4891.5kbits/s speed=0.767x elapsed=0:00:16.20    frame=  401 fps= 24 q=25.0 size=    7680KiB time=00:00:13.30 bitrate=4730.4kbits/s speed=0.783x elapsed=0:00:16.98    frame=  445 fps= 25 q=25.0 size=    8192KiB time=00:00:14.43 bitrate=4649.6kbits/s speed=0.815x elapsed=0:00:17.70    frame=  448 fps= 24 q=25.0 size=    8448KiB time=00:00:14.86 bitrate=4655.1kbits/s speed=0.807x elapsed=0:00:18.41    frame=  448 fps= 23 q=25.0 size=    8448KiB time=00:00:14.86 bitrate=4655.1kbits/s speed=0.778x elapsed=0:00:19.10    frame=  497 fps= 25 q=25.0 size=    9472KiB time=00:00:16.03 bitrate=4839.6kbits/s speed=0.804x elapsed=0:00:19.93    frame=  558 fps= 27 q=25.0 size=   10496KiB time=00:00:16.60 bitrate=5179.7kbits/s speed=0.798x elapsed=0:00:20.81    frame=  575 fps= 26 q=25.0 size=   10496KiB time=00:00:19.10 bitrate=4501.8kbits/s speed=0.871x elapsed=0:00:21.91    frame=  608 fps= 27 q=25.0 size=   10752KiB time=00:00:19.86 bitrate=4433.6kbits/s speed=0.879x elapsed=0:00:22.59    frame=  632 fps= 27 q=25.0 size=   11008KiB time=00:00:20.93 bitrate=4307.9kbits/s speed=0.891x elapsed=0:00:23.50    frame=  659 fps= 27 q=25.0 size=   11008KiB time=00:00:21.90 bitrate=4117.7kbits/s speed=0.911x elapsed=0:00:24.05    frame=  659 fps= 27 q=25.0 size=   11008KiB time=00:00:21.90 bitrate=4117.7kbits/s speed=0.888x elapsed=0:00:24.65    frame=  683 fps= 27 q=25.0 size=   11520KiB time=00:00:21.90 bitrate=4309.2kbits/s speed=0.867x elapsed=0:00:25.26    frame=  724 fps= 27 q=25.0 size=   11776KiB time=00:00:23.76 bitrate=4059.0kbits/s speed= 0.9x elapsed=0:00:26.41    frame=  730 fps= 27 q=25.0 size=   11776KiB time=N/A bitrate=N/A speed=N/A elapsed=0:00:27.06    frame=  788 fps= 29 q=-1.0 size=   12800KiB time=N/A bitrate=N/A speed=N/A elapsed=0:00:27.62    [mp4 @ 0000027858ff1d00] Starting second pass: moving the moov atom to the beginning of the file
[out#0/mp4 @ 0000027858564740] video:12270KiB audio:639KiB subtitle:0KiB other streams:0KiB global headers:0KiB muxing overhead: 0.227259%
frame=  800 fps= 28 q=-1.0 Lsize=   12938KiB time=00:00:26.60 bitrate=3984.6kbits/s speed=0.918x elapsed=0:00:28.98    
[libx264 @ 0000027858886500] frame I:4     Avg QP:15.31  size:394859
[libx264 @ 0000027858886500] frame P:235   Avg QP:17.63  size: 37728
[libx264 @ 0000027858886500] frame B:561   Avg QP:22.68  size:  3775
[libx264 @ 0000027858886500] consecutive B-frames:  2.1%  7.8% 16.1% 74.0%
[libx264 @ 0000027858886500] mb I  I16..4: 15.3% 27.7% 57.0%
[libx264 @ 0000027858886500] mb P  I16..4:  1.0%  1.7%  0.8%  P16..4: 24.3%  5.5%  6.5%  0.0%  0.0%    skip:60.3%
[libx264 @ 0000027858886500] mb B  I16..4:  0.1%  0.1%  0.0%  B16..8: 13.5%  0.9%  0.4%  direct: 0.5%  skip:84.5%  L0:45.8% L1:50.8% BI: 3.5%
[libx264 @ 0000027858886500] 8x8 transform intra:42.0% inter:32.1%
[libx264 @ 0000027858886500] coded y,uvDC,uvAC intra: 46.5% 55.3% 38.2% inter: 5.7% 4.5% 1.6%
[libx264 @ 0000027858886500] i16 v,h,dc,p: 22% 41% 18% 19%
[libx264 @ 0000027858886500] i8 v,h,dc,ddl,ddr,vr,hd,vl,hu: 24% 21% 31%  2%  5%  4%  6%  2%  4%
[libx264 @ 0000027858886500] i4 v,h,dc,ddl,ddr,vr,hd,vl,hu: 21% 24% 14%  5%  8%  7%  8%  5%  8%
[libx264 @ 0000027858886500] i8c dc,h,v,p: 47% 31% 16%  5%
[libx264 @ 0000027858886500] Weighted P-Frames: Y:0.0% UV:0.0%
[libx264 @ 0000027858886500] ref P L0: 65.6%  9.6% 17.5%  7.3%
[libx264 @ 0000027858886500] ref B L0: 82.8% 13.8%  3.4%
[libx264 @ 0000027858886500] ref B L1: 96.8%  3.2%
[libx264 @ 0000027858886500] kb/s:3768.99
[aac @ 00000278589d2740] Qavg: 707.067
